<svg width="147" height="49" viewBox="0 0 147 49" fill="none" xmlns="http://www.w3.org/2000/svg">
<path d="M45.2578 25.9262L51.5946 11.9338H53.7497L60.1508 25.9262H57.5453L55.8405 22.0019L56.8698 22.7095H48.4744L49.5359 22.0019L47.8311 25.9262H45.2578ZM52.6239 14.7001L49.8254 21.3264L49.3108 20.7152H55.9692L55.551 21.3264L52.6882 14.7001H52.6239Z" fill="#2C2C2C"/>
<path d="M68.3861 26.1192C67.2603 26.1192 66.231 25.9906 65.2982 25.7011C64.3653 25.4116 63.529 25.0256 62.8535 24.5109L63.6577 22.5166C64.108 22.8383 64.5905 23.0956 65.073 23.3208C65.5555 23.5459 66.0701 23.7068 66.6491 23.8033C67.196 23.8998 67.8071 23.9641 68.4183 23.9641C69.4476 23.9641 70.2196 23.8033 70.6699 23.4494C71.1203 23.0956 71.3776 22.6453 71.3776 22.0985C71.3776 21.616 71.2168 21.23 70.8951 20.9726C70.5734 20.7153 69.9944 20.4901 69.1903 20.3293L66.9386 19.879C65.652 19.6217 64.687 19.1713 64.0758 18.5602C63.4325 17.949 63.1108 17.1127 63.1108 16.0512C63.1108 15.1827 63.336 14.4107 63.8185 13.7674C64.2688 13.1241 64.9443 12.6094 65.7485 12.2556C66.5848 11.9017 67.5498 11.7087 68.6756 11.7087C69.6728 11.7087 70.5734 11.8374 71.4419 12.1269C72.2782 12.4164 72.9859 12.8024 73.5649 13.3492L72.7607 15.247C72.1817 14.7645 71.5706 14.4107 70.8951 14.1855C70.2196 13.9604 69.4798 13.8317 68.6434 13.8317C67.7106 13.8317 66.9708 14.0247 66.4561 14.3785C65.9415 14.7324 65.6842 15.247 65.6842 15.8904C65.6842 16.3729 65.845 16.7588 66.1666 17.0483C66.4883 17.3378 67.0351 17.563 67.8071 17.7238L70.0266 18.1742C71.3454 18.4315 72.3426 18.8818 72.9537 19.4608C73.5971 20.072 73.9187 20.8761 73.9187 21.9055C73.9187 22.7418 73.6936 23.4816 73.2432 24.0928C72.7929 24.7361 72.1496 25.2186 71.3454 25.5724C70.5413 25.9262 69.5119 26.1192 68.3861 26.1192Z" fill="#2C2C2C"/>
<path d="M81.2843 25.926V14.0566H76.6523V11.9658H88.4574V14.0566H83.8254V25.926H81.2843Z" fill="#2C2C2C"/>
<path d="M89.1328 25.9262L95.4696 11.9338H97.6247L104.026 25.9262H101.42L99.7155 22.0019L100.745 22.7095H92.3494L93.4109 22.0019L91.7061 25.9262H89.1328ZM96.5311 14.7001L93.7326 21.3264L93.2179 20.7152H99.8764L99.4582 21.3264L96.5954 14.7001H96.5311Z" fill="#2C2C2C"/>
<path d="M107.531 25.926V11.9658H109.461L117.567 22.452H117.052V11.9658H119.433V25.9582H117.503L109.429 15.4398H109.912V25.926H107.531Z" fill="#2C2C2C"/>
<path d="M122.971 25.9262L129.307 11.9338H131.463L137.864 25.9262H135.258L133.553 22.0019L134.583 22.7095H126.187L127.249 22.0019L125.544 25.9262H122.971ZM130.337 14.7001L127.538 21.3264L127.024 20.7152H133.682L133.264 21.3264L130.401 14.7001H130.337Z" fill="#2C2C2C"/>
<path d="M45.0664 40.8514V31.7483H46.1279V40.8514H45.0664Z" fill="#2C2C2C"/>
<path d="M49.6992 40.8514V31.7483H50.5355L56.3576 39.4682H56.0681V31.7483H57.0653V40.8514H56.229L50.4069 33.1314H50.6964V40.8514H49.6992Z" fill="#2C2C2C"/>
<path d="M63.4662 40.8514L59.5098 31.7483H60.6678L64.1739 39.9829H63.7879L67.3262 31.7483H68.4198L64.4634 40.8514H63.4662Z" fill="#2C2C2C"/>
<path d="M70.8965 40.8514V31.7483H76.6864V32.6168H71.9258V35.7691H76.3969V36.6697H71.9258V39.9507H76.6864V40.8514H70.8965Z" fill="#2C2C2C"/>
<path d="M82.6048 40.9477C81.865 40.9477 81.2217 40.8512 80.6427 40.6582C80.0637 40.4652 79.549 40.2078 79.1309 39.854L79.5169 39.0177C79.8064 39.2429 80.128 39.4359 80.4175 39.5645C80.707 39.7254 81.0608 39.8219 81.4147 39.8862C81.7685 39.9505 82.1545 39.9827 82.6048 39.9827C83.3768 39.9827 83.9236 39.854 84.3096 39.5645C84.6635 39.275 84.8565 38.889 84.8565 38.4387C84.8565 38.0205 84.7278 37.731 84.4705 37.5059C84.2131 37.2807 83.7628 37.1199 83.1195 36.9912L81.7685 36.7339C80.9322 36.5731 80.321 36.2836 79.9028 35.8976C79.4847 35.5116 79.2917 34.9969 79.2917 34.3214C79.2917 33.7746 79.4204 33.2921 79.7099 32.9061C79.9994 32.4879 80.3853 32.1984 80.9 31.9733C81.4147 31.7481 81.9937 31.6516 82.6692 31.6516C83.3125 31.6516 83.8915 31.7481 84.4383 31.9411C84.9851 32.1341 85.4355 32.4236 85.7893 32.7774L85.4033 33.6138C84.9851 33.2599 84.567 33.0026 84.1488 32.8418C83.6985 32.6809 83.216 32.6166 82.637 32.6166C81.9293 32.6166 81.3825 32.7774 80.9643 33.0669C80.5462 33.3564 80.3532 33.7746 80.3532 34.3214C80.3532 34.7396 80.4818 35.0612 80.7392 35.3186C80.9965 35.5437 81.4147 35.7367 82.0258 35.8654L83.3768 36.1227C84.2453 36.3157 84.8886 36.5731 85.3068 36.9269C85.725 37.2807 85.918 37.7954 85.918 38.4387C85.918 38.9534 85.7893 39.3715 85.4998 39.7575C85.2425 40.1435 84.8565 40.433 84.3418 40.6582C83.8915 40.8512 83.2803 40.9477 82.6048 40.9477Z" fill="#2C2C2C"/>
<path d="M90.9686 40.8513V32.6811H87.752V31.7804H95.2145V32.6811H92.0301V40.8513H90.9686Z" fill="#2C2C2C"/>
<path d="M11.2266 34.2571L16.1802 32.4558L19.622 21.4871L14.6684 23.2884L11.2266 34.2571Z" fill="#E4BB26"/>
<path d="M9.16797 40.7869H13.5426L15.3761 34.9648L10.4225 36.7983L9.16797 40.7869Z" fill="#E4BB26"/>
<path d="M23.4503 9.42472L25.6697 16.5335V16.5656L26.6991 16.1796H26.7312L24.1258 7.94507H19.526L15.666 20.1683L20.6196 18.3669L23.4503 9.42472Z" fill="#E4BB26"/>
<path d="M19.7188 31.1692L24.3185 29.4965L27.7603 18.5278L23.1927 20.2005L19.7188 31.1692Z" fill="#E4BB26"/>
<path d="M31.042 29.2393L30.0126 29.6253H29.9805L33.5188 40.8191H34.6768L31.042 29.2714V29.2393Z" fill="#E4BB26"/>
<path d="M35.7043 15.665L31.4262 17.209L27.9844 28.1777L32.2303 26.6337L35.7043 15.665Z" fill="#E4BB26"/>
</svg>
