<svg width="50" height="50" viewBox="0 0 50 50" fill="none" xmlns="http://www.w3.org/2000/svg">
<path d="M45.3125 0H4.6875C2.10938 0 0 2.10938 0 4.6875V45.3125C0 47.8906 2.10938 50 4.6875 50H45.3125C47.8906 50 50 47.8906 50 45.3125V4.6875C50 2.10938 47.8906 0 45.3125 0Z" fill="#4A5173"/>
<path d="M38.2563 37.7796C36.5391 37.7796 35.136 36.3139 35.136 34.5233V31.578L21.8063 18.2483L21.4781 18.5764C22.4406 20.8514 22.0031 23.5764 20.1485 25.4311C17.7078 27.8718 13.75 27.8718 11.3094 25.4311C8.86877 22.9905 8.86877 19.0327 11.3094 16.5921C13.1625 14.7389 15.8891 14.2999 18.1641 15.2624L18.4922 14.9343L16.8344 13.2764C15.011 11.453 15.011 8.47019 16.8344 6.64832L1.36721 22.1155C-0.456226 23.9389 -0.456226 26.9218 1.36721 28.7452L21.2547 48.6327C23.0781 50.4561 26.061 50.4561 27.8844 48.6327L38.7953 37.7218C38.6188 37.7546 38.4406 37.7796 38.2563 37.7796Z" fill="#1E2339"/>
<path d="M38.2563 37.7796C36.5391 37.7796 35.136 36.3139 35.136 34.5233V31.578L21.8063 18.2483L21.4781 18.5764C22.4406 20.8514 22.0031 23.5764 20.1485 25.4311C17.7078 27.8718 13.75 27.8718 11.3094 25.4311C8.86877 22.9905 8.86877 19.0327 11.3094 16.5921C13.1625 14.7389 15.8891 14.2999 18.1641 15.2624L18.4922 14.9343L16.8344 13.2764C15.011 11.453 15.011 8.47019 16.8344 6.64832L1.36721 22.1155C-0.456226 23.9389 -0.456226 26.9218 1.36721 28.7452L21.2547 48.6327C23.0781 50.4561 26.061 50.4561 27.8844 48.6327L38.7953 37.7218C38.6188 37.7546 38.4406 37.7796 38.2563 37.7796Z" fill="#1E2339"/>
<path d="M22.9407 10.4859L27.3532 6.07339L24.5735 3.2937C23.3079 2.02807 21.2782 1.98432 20.0641 3.19839C18.85 4.41245 18.8938 6.44058 20.1594 7.70776L22.9407 10.4859Z" fill="#E4BB26"/>
<path d="M46.8095 27.6984C46.822 26.8437 46.5032 25.9719 45.8407 25.3094L30.6688 9.38904L26.2563 13.8015L41.3798 28.9281V37.3875C41.3798 39.1781 42.4782 40.625 44.1954 40.625C45.9095 40.625 46.8751 39.1781 46.8751 37.3875V28.3578C46.8751 28.1328 46.8517 27.9109 46.8095 27.6984Z" fill="#E4BB26"/>
<path d="M22.9407 10.4859L27.3532 6.07339L24.5735 3.2937C23.3079 2.02807 21.2782 1.98432 20.0641 3.19839C18.85 4.41245 18.8938 6.44058 20.1594 7.70776L22.9407 10.4859Z" fill="#E4BB26"/>
<path d="M46.8095 27.6984C46.822 26.8437 46.5032 25.9719 45.8407 25.3094L30.6688 9.38904L26.2563 13.8015L41.3798 28.9281V37.3875C41.3798 39.1781 42.4782 40.625 44.1954 40.625C45.9095 40.625 46.8751 39.1781 46.8751 37.3875V28.3578C46.8751 28.1328 46.8517 27.9109 46.8095 27.6984Z" fill="#E4BB26"/>
<path d="M21.8063 18.2484L35.136 31.5781V34.5234C35.136 36.314 36.5406 37.7797 38.2563 37.7797C39.9719 37.7797 41.3766 36.314 41.3766 34.5234V28.9297L26.2531 13.8031L21.8063 18.2484Z" fill="#FFA800"/>
<path d="M17.3874 22.6687C16.9296 23.1265 16.3296 23.3546 15.7296 23.3546C15.1296 23.3546 14.5311 23.1265 14.0733 22.6687C13.1577 21.7531 13.1577 20.2703 14.0733 19.3546L18.1655 15.2624C15.8905 14.2999 13.1655 14.7374 11.3108 16.5921C8.87019 19.0328 8.87019 22.9906 11.3108 25.4312C13.7514 27.8718 17.7093 27.8718 20.1499 25.4312C22.003 23.5781 22.4421 20.8515 21.4796 18.5765L17.3874 22.6687Z" fill="#158DB4"/>
<path d="M41.6952 8.17178L35.0655 1.67646C34.1499 0.76084 32.6671 0.76084 31.7514 1.67646L14.0733 19.3546C13.1577 20.2702 13.1577 21.753 14.0733 22.6687C14.9889 23.5843 16.4718 23.5843 17.3874 22.6687L33.4077 6.64834L36.7686 9.91709L33.8561 12.7327L37.0952 16.1312L41.6952 11.6187C42.1702 11.1437 42.3874 10.5171 42.3686 9.89522C42.3858 9.27334 42.1702 8.64678 41.6952 8.17178Z" fill="#FAFFC6"/>
<path d="M41.6952 8.17178L35.0655 1.67646C34.1499 0.76084 32.6671 0.76084 31.7514 1.67646L14.0733 19.3546C13.1577 20.2702 13.1577 21.753 14.0733 22.6687C14.9889 23.5843 16.4718 23.5843 17.3874 22.6687L33.4077 6.64834L36.7686 9.91709L33.8561 12.7327L37.0952 16.1312L41.6952 11.6187C42.1702 11.1437 42.3874 10.5171 42.3686 9.89522C42.3858 9.27334 42.1702 8.64678 41.6952 8.17178Z" fill="#FAFFC6"/>
<path d="M20.0656 3.19678C19.9266 3.30771 16.836 6.64678 16.836 6.64678C15.0125 8.47022 15.0125 11.453 16.836 13.2765L18.4938 14.9343L22.9422 10.4858L20.1625 7.70615C18.8953 6.44053 18.8516 4.41084 20.0656 3.19678Z" fill="#FFA800"/>
</svg>
