<svg width="50" height="50" viewBox="0 0 50 50" fill="none" xmlns="http://www.w3.org/2000/svg">
<g clip-path="url(#clip0_142_1141)">
<path d="M4.6875 0H45.3125C47.9016 0 50 2.09844 50 4.6875V45.3125C50 47.9016 47.9016 50 45.3125 50H4.6875C2.09844 50 0 47.9016 0 45.3125V4.6875C0 2.09844 2.09844 0 4.6875 0Z" fill="#4A5173"/>
<path d="M45.3125 0H21.875V13.6719H20.5719C18.8454 13.6719 17.4454 15.0719 17.4454 16.7984V17.2516C17.4454 18.9781 18.8454 20.3781 20.5719 20.3781H21.875V23.2094H19.3438C17.4954 23.2094 15.9954 24.7094 15.9954 26.5578C15.9954 27.4234 16.3391 28.1984 16.8797 28.7906C16.3375 29.3828 15.9954 30.1578 15.9954 31.0234C15.9954 32.8719 17.4954 34.3719 19.3438 34.3719H22.6469C25.211 40.1031 30.236 44.5516 36.4235 46.4406V50H45.3125C47.4688 50 49.2782 48.5172 49.8188 46.5266V46.4391C49.8297 46.4359 49.8391 46.4313 49.85 46.4281C49.9391 46.0688 50 45.6984 50 45.3125V4.6875C50 2.10938 47.8907 0 45.3125 0Z" fill="#E4BB26"/>
<path d="M36.0876 3.52332C32.6595 3.52332 29.8735 6.31238 29.8735 9.73894C29.8735 10.7858 30.722 11.6374 31.7704 11.6374C32.8188 11.6374 33.6673 10.7874 33.6673 9.73894C33.6673 8.40456 34.7532 7.32019 36.0876 7.32019C37.422 7.32019 38.5079 8.40456 38.5079 9.73894C38.5079 10.7858 39.3563 11.6374 40.4048 11.6374C41.4532 11.6374 42.3017 10.7874 42.3017 9.73894C42.3017 6.31238 39.5157 3.52332 36.0876 3.52332Z" fill="#158DB4"/>
</g>
<defs>
<clipPath id="clip0_142_1141">
<rect width="50" height="50" fill="white"/>
</clipPath>
</defs>
</svg>
