<svg width="50" height="50" viewBox="0 0 50 50" fill="none" xmlns="http://www.w3.org/2000/svg">
<g clip-path="url(#clip0_142_990)">
<path d="M17.1875 42.1875H6.25V35.9375H17.1875H25V28.125H6.25V21.875H25V14.0625H12.5H6.25V7.8125H12.5H25V0H4.6875C2.10938 0 0 2.10938 0 4.6875V45.3125C0 47.8906 2.10938 50 4.6875 50H25V42.1875H17.1875Z" fill="#1D6C86"/>
<path d="M45.3125 0H25V7.8125H43.75V14.0625H25V21.875H40.625V28.125H25V35.9375H39.0625H43.75V42.1875H39.0625H25V50H45.3125C47.8906 50 50 47.8906 50 45.3125V4.6875C50 2.10938 47.8906 0 45.3125 0Z" fill="#4A5173"/>
<path d="M43.75 7.8125V14.0625H12.5V7.8125H43.75ZM43.75 42.1875V35.9375H39.0625V42.1875H43.75ZM6.25 28.125H25V21.875H6.25V28.125ZM6.25 35.9375V42.1875H17.1875V35.9375H6.25Z" fill="#E4BB26"/>
<path d="M25 28.125V21.875H43.75V28.125H25ZM6.25 7.8125V14.0625H12.5V7.8125H6.25ZM17.1875 35.9375V42.1875H39.0625V35.9375H17.1875Z" fill="#FAFFC6"/>
</g>
<defs>
<clipPath id="clip0_142_990">
<rect width="50" height="50" fill="white"/>
</clipPath>
</defs>
</svg>
